<svg width="21" height="21" viewBox="0 0 21 32" fill="none" xmlns="http://www.w3.org/2000/svg">
<path d="M5.18519 31.1116C8.04741 31.1116 10.3704 28.7886 10.3704 25.9264V20.7412H5.18519C2.32296 20.7412 0 23.0642 0 25.9264C0 28.7886 2.32296 31.1116 5.18519 31.1116Z" fill="#0ACF83"/>
<path d="M0 15.5553C0 12.6931 2.32296 10.3701 5.18519 10.3701H10.3704V20.7405H5.18519C2.32296 20.7405 0 18.4175 0 15.5553Z" fill="#A259FF"/>
<path d="M0 5.18518C0 2.32296 2.32296 0 5.18519 0H10.3704V10.3704H5.18519C2.32296 10.3704 0 8.0474 0 5.18518Z" fill="#F24E1E"/>
<path d="M10.3672 0H15.5524C18.4146 0 20.7376 2.32296 20.7376 5.18518C20.7376 8.0474 18.4146 10.3704 15.5524 10.3704H10.3672V0Z" fill="#FF7262"/>
<path d="M20.7376 15.5553C20.7376 18.4175 18.4146 20.7405 15.5524 20.7405C12.6902 20.7405 10.3672 18.4175 10.3672 15.5553C10.3672 12.6931 12.6902 10.3701 15.5524 10.3701C18.4146 10.3701 20.7376 12.6931 20.7376 15.5553Z" fill="#1ABCFE"/>
</svg>
