<svg width="29" height="32" viewBox="0 0 29 32" fill="none" xmlns="http://www.w3.org/2000/svg">
<path d="M12.8422 0.331912C13.6136 -0.109639 14.6184 -0.111634 15.3891 0.331912C19.2667 2.52294 23.1455 4.71053 27.0224 6.90288C27.7516 7.31363 28.2393 8.12515 28.2319 8.96537V22.1474C28.2373 23.0224 27.7014 23.8533 26.9321 24.2548C23.0672 26.4337 19.2044 28.6153 15.3403 30.7943C14.5529 31.2445 13.528 31.2098 12.7652 30.7227C11.6065 30.051 10.4459 29.3827 9.28708 28.7116C9.05029 28.5705 8.78336 28.4581 8.61616 28.2285C8.76397 28.0293 9.02824 28.0045 9.24298 27.9175C9.72663 27.7637 10.1708 27.5168 10.6152 27.2773C10.7275 27.2004 10.8647 27.2299 10.9724 27.2987C11.9632 27.8668 12.9452 28.4514 13.9394 29.014C14.1515 29.1365 14.3662 28.9739 14.5475 28.8728C18.34 26.7294 22.1373 24.594 25.9292 22.4498C26.0697 22.3822 26.1474 22.2331 26.1359 22.0792C26.1386 17.7307 26.1366 13.3814 26.1373 9.03296C26.1533 8.85834 26.0523 8.69778 25.8944 8.62632C22.043 6.45734 18.1936 4.28504 14.3428 2.11551C14.2761 2.06965 14.1971 2.04504 14.1161 2.04492C14.0351 2.0448 13.956 2.06918 13.8892 2.11485C10.0384 4.28504 6.18968 6.45934 2.33893 8.6282C2.18159 8.69978 2.076 8.85767 2.09472 9.03296C2.09539 13.3814 2.09472 17.7307 2.09472 22.0798C2.08804 22.1549 2.10454 22.2303 2.14198 22.2957C2.17942 22.3611 2.23602 22.4135 2.30414 22.4458C3.33173 23.0285 4.36065 23.6071 5.3889 24.1879C5.96818 24.4997 6.67943 24.6849 7.31766 24.446C7.88087 24.244 8.27566 23.6693 8.26491 23.0713C8.27023 18.7482 8.26226 14.4244 8.2689 10.102C8.25483 9.91008 8.43688 9.75152 8.62347 9.76958C9.11721 9.76626 9.61162 9.76294 10.1054 9.77091C10.3115 9.76626 10.4533 9.97291 10.4278 10.1663C10.4258 14.5167 10.4331 18.8673 10.4245 23.2178C10.4258 24.3772 9.94946 25.6388 8.87699 26.2061C7.55577 26.8906 5.92275 26.7454 4.61749 26.0891C3.48752 25.5252 2.40918 24.8596 1.29926 24.2553C0.527963 23.8561 -0.00533399 23.0219 9.53685e-05 22.1475V8.96537C-0.00799327 8.10776 0.499154 7.2815 1.25106 6.87673C5.11522 4.69601 8.97871 2.51363 12.8422 0.331912Z" fill="#8CC84B"/>
<path d="M16.2171 9.46289C17.9025 9.35441 19.7067 9.39862 21.2232 10.2289C22.3974 10.8651 23.0484 12.2004 23.0691 13.5049C23.0363 13.6808 22.8524 13.7779 22.6844 13.7658C22.1954 13.7652 21.7063 13.7725 21.2174 13.7625C21.0099 13.7705 20.8894 13.5792 20.8633 13.3959C20.7228 12.7717 20.3825 12.1535 19.795 11.8525C18.8931 11.401 17.8475 11.4237 16.8641 11.4331C16.1462 11.4712 15.3743 11.5334 14.7661 11.9555C14.2991 12.2753 14.1573 12.9208 14.324 13.4407C14.4811 13.814 14.912 13.9345 15.2646 14.0455C17.2956 14.5767 19.4478 14.5238 21.4401 15.2229C22.2649 15.5079 23.0718 16.0619 23.3541 16.9255C23.7234 18.0829 23.5615 19.4664 22.738 20.3956C22.0702 21.1603 21.0976 21.5765 20.1275 21.8025C18.837 22.0903 17.4977 22.0976 16.1871 21.9698C14.9548 21.8293 13.6723 21.5055 12.721 20.6659C11.9074 19.9595 11.5101 18.8589 11.5495 17.7966C11.559 17.6172 11.7376 17.4921 11.9094 17.5069C12.4018 17.5029 12.8943 17.5016 13.3867 17.5075C13.5833 17.4935 13.7292 17.6634 13.7392 17.8488C13.8301 18.4435 14.0536 19.0677 14.5722 19.4202C15.5729 20.0659 16.8287 20.0217 17.9746 20.0397C18.924 19.9976 19.9897 19.9849 20.7644 19.3574C21.1731 18.9995 21.2943 18.4007 21.1838 17.8856C21.0641 17.4507 20.6092 17.248 20.2185 17.1155C18.2135 16.4813 16.0372 16.7114 14.0516 15.9942C13.2455 15.7093 12.466 15.1707 12.1563 14.3426C11.7242 13.1705 11.9222 11.7207 12.832 10.8229C13.7191 9.92981 14.9996 9.58588 16.2171 9.46278V9.46289Z" fill="#8CC84B"/>
</svg>
