<svg width="32" height="34" viewBox="0 0 32 34" fill="none" xmlns="http://www.w3.org/2000/svg">
<path d="M15.7194 19.6644C17.2342 19.6644 18.4622 18.4364 18.4622 16.9215C18.4622 15.4067 17.2342 14.1787 15.7194 14.1787C14.2046 14.1787 12.9766 15.4067 12.9766 16.9215C12.9766 18.4364 14.2046 19.6644 15.7194 19.6644Z" fill="#61DAFB"/>
<path fill-rule="evenodd" clip-rule="evenodd" d="M2.82666 15.4762C2.20554 16.0369 2 16.5269 2 16.9212C2 17.3156 2.20554 17.8056 2.82666 18.3663C3.44768 18.9269 4.40246 19.4776 5.66739 19.9605C8.19037 20.9239 11.7434 21.5407 15.7176 21.5407C19.6918 21.5407 23.2449 20.9239 25.7678 19.9605C27.0328 19.4776 27.9875 18.9269 28.6086 18.3663C29.2297 17.8056 29.4352 17.3156 29.4352 16.9212C29.4352 16.5269 29.2297 16.0369 28.6086 15.4762C27.9875 14.9155 27.0328 14.3648 25.7678 13.8819C23.2449 12.9186 19.6918 12.3018 15.7176 12.3018C11.7434 12.3018 8.19037 12.9186 5.66739 13.8819C4.40246 14.3648 3.44768 14.9155 2.82666 15.4762ZM4.95399 12.0134C7.75773 10.9429 11.5635 10.3018 15.7176 10.3018C19.8717 10.3018 23.6775 10.9429 26.4812 12.0134C27.8797 12.5474 29.0802 13.2076 29.9487 13.9916C30.8171 14.7755 31.4352 15.7638 31.4352 16.9212C31.4352 18.0786 30.8171 19.0669 29.9487 19.8508C29.0802 20.6348 27.8797 21.295 26.4812 21.829C23.6775 22.8995 19.8717 23.5407 15.7176 23.5407C11.5635 23.5407 7.75773 22.8995 4.95399 21.829C3.55555 21.295 2.35499 20.6348 1.4865 19.8508C0.618127 19.0669 0 18.0786 0 16.9212C0 15.7638 0.618127 14.7755 1.4865 13.9916C2.35499 13.2076 3.55555 12.5474 4.95399 12.0134Z" fill="#61DAFB"/>
<path fill-rule="evenodd" clip-rule="evenodd" d="M10.5259 5.03516C9.72978 4.7776 9.20265 4.8446 8.86114 5.04178C8.51962 5.23895 8.19803 5.66195 8.02301 6.48022C7.84802 7.29834 7.84849 8.40055 8.06269 9.7375C8.48992 12.4041 9.73226 15.7895 11.7194 19.2313C13.7065 22.6731 16.0172 25.4417 18.1129 27.145C19.1636 27.999 20.118 28.5505 20.914 28.808C21.7101 29.0656 22.2372 28.9986 22.5787 28.8014C22.9203 28.6042 23.2419 28.1812 23.4169 27.3629C23.5919 26.5448 23.5914 25.4426 23.3772 24.1057C22.95 21.439 21.7076 18.0536 19.7205 14.6119C17.7334 11.1701 15.4227 8.40147 13.327 6.69816C12.2762 5.84419 11.3219 5.29268 10.5259 5.03516ZM14.5884 5.14612C16.9174 7.03897 19.3755 10.0143 21.4526 13.6119C23.5296 17.2094 24.8772 20.8259 25.352 23.7893C25.5888 25.2673 25.6174 26.6371 25.3726 27.7813C25.1279 28.9253 24.5811 29.9547 23.5787 30.5334C22.5764 31.1121 21.4114 31.071 20.2984 30.7109C19.1852 30.3508 18.0131 29.6411 16.8515 28.697C14.5225 26.8042 12.0644 23.8288 9.98733 20.2313C7.91029 16.6338 6.56265 13.0173 6.08787 10.0539C5.85107 8.57584 5.82253 7.20602 6.06725 6.06189C6.31194 4.91791 6.85878 3.88844 7.86114 3.30973C8.86349 2.73101 10.0285 2.77217 11.1415 3.13226C12.2547 3.49239 13.4268 4.20201 14.5884 5.14612Z" fill="#61DAFB"/>
<path fill-rule="evenodd" clip-rule="evenodd" d="M23.418 6.4799C23.243 5.66164 22.9214 5.23864 22.5799 5.04146C22.2384 4.84429 21.7112 4.77729 20.9151 5.03485C20.1191 5.29236 19.1648 5.84388 18.114 6.69785C16.0183 8.40116 13.7076 11.1698 11.7205 14.6115C9.7334 18.0533 8.49106 21.4387 8.06383 24.1053C7.84963 25.4423 7.84916 26.5445 8.02415 27.3626C8.19917 28.1809 8.52076 28.6039 8.86227 28.8011C9.20378 28.9982 9.73091 29.0652 10.5271 28.8077C11.3231 28.5502 12.2774 27.9987 13.3281 27.1447C15.4239 25.4414 17.7345 22.6728 19.7216 19.231C21.7088 15.7892 22.9511 12.4038 23.3783 9.73719C23.5925 8.40024 23.593 7.29802 23.418 6.4799ZM25.3531 10.0536C24.8784 13.017 23.5307 16.6335 21.4537 20.231C19.3767 23.8285 16.9185 26.8039 14.5895 28.6967C13.4279 29.6408 12.2559 30.3505 11.1427 30.7106C10.0296 31.0707 8.86463 31.1118 7.86227 30.5331C6.85991 29.9544 6.31308 28.9249 6.06839 27.781C5.82367 26.6368 5.85221 25.267 6.08901 23.789C6.56379 20.8256 7.91142 17.2091 9.98846 13.6115C12.0655 10.014 14.5237 7.03866 16.8526 5.14581C18.0143 4.2017 19.1863 3.49208 20.2995 3.13195C21.4126 2.77186 22.5775 2.7307 23.5799 3.30941C24.5822 3.88813 25.1291 4.91759 25.3738 6.06158C25.6185 7.20571 25.59 8.57552 25.3531 10.0536Z" fill="#61DAFB"/>
</svg>
