<svg width="100" height="90" viewBox="0 0 100 90" fill="none" xmlns="http://www.w3.org/2000/svg">
<path fill-rule="evenodd" clip-rule="evenodd" d="M61.7109 55.6585L59.7928 58.9893C59.2149 59.9927 58.1452 60.6111 56.9874 60.6111H42.2932C41.1353 60.6111 40.0656 59.9927 39.4877 58.9893L37.5694 55.6585H61.7109ZM67.0809 46.3343L63.6987 52.2069H35.5816L32.1996 46.3343H67.0809ZM63.823 37.2163L67.0863 42.8828H32.1942L35.4575 37.2163H63.823ZM56.9874 28.5967C58.1452 28.5967 59.2149 29.2151 59.7928 30.2184L61.8352 33.7647H37.4453L39.4877 30.2184C40.0656 29.2151 41.1353 28.5967 42.2932 28.5967H56.9874Z" fill="#00435B"/>
<path d="M20.9074 27.0512C19.2796 19.1582 18.9303 13.1044 19.9824 8.7085C20.6082 6.09406 21.7523 3.96123 23.4919 2.42244C25.3285 0.797871 27.6505 0.000693963 30.2596 0.000693963C34.5638 0.000693963 39.0886 1.96346 43.9241 5.69219C45.8964 7.21307 47.9434 9.04625 50.0693 11.1928C50.2385 10.9749 50.4298 10.7695 50.6429 10.5796C56.6531 5.22356 61.7133 1.89581 66.0413 0.612729C68.6147 -0.15019 71.0308 -0.222874 73.231 0.517566C75.5535 1.29915 77.404 2.91479 78.7096 5.1778C80.8644 8.91257 81.4326 13.8201 80.6293 19.8796C80.3018 22.3495 79.742 25.04 78.9511 27.9551C79.2495 27.9912 79.5486 28.0573 79.8448 28.1555C87.4705 30.6825 92.8703 33.4001 96.1395 36.5057C98.0846 38.3535 99.3547 40.4107 99.8139 42.6878C100.299 45.0913 99.826 47.5021 98.5219 49.7634C96.3712 53.4928 92.4167 56.4341 86.7829 58.7639C84.5208 59.6993 81.9614 60.5465 79.1017 61.3085C79.2322 61.6031 79.3334 61.916 79.4011 62.2442C81.0289 70.1372 81.3782 76.191 80.326 80.5869C79.7003 83.2014 78.5562 85.3342 76.8166 86.873C74.98 88.4975 72.6579 89.2947 70.0489 89.2947C65.7447 89.2947 61.2199 87.332 56.3844 83.6032C54.3911 82.0662 52.3215 80.2101 50.1713 78.034C49.95 78.3801 49.6784 78.7018 49.3571 78.988C43.3469 84.344 38.2867 87.6718 33.9587 88.9549C31.3853 89.7178 28.9692 89.7905 26.769 89.05C24.4465 88.2685 22.596 86.6528 21.2904 84.3898C19.1356 80.655 18.5674 75.7475 19.3707 69.688C19.71 67.1288 20.2987 64.3328 21.1356 61.2955C20.8085 61.2623 20.48 61.1932 20.1552 61.0855C12.5295 58.5585 7.12969 55.8409 3.86052 52.7352C1.91544 50.8875 0.645278 48.8303 0.186124 46.5532C-0.298514 44.1497 0.174045 41.7389 1.47813 39.4775C3.62884 35.7482 7.58335 32.8069 13.2171 30.4771C15.5466 29.5138 18.1914 28.644 21.1547 27.8646C21.0491 27.6061 20.9658 27.3344 20.9074 27.0512Z" fill="#002B3B"/>
<path fill-rule="evenodd" clip-rule="evenodd" d="M40.4917 24.5367C44.4446 24.2221 48.519 24.0832 52.7148 24.1199C53.5094 24.1269 54.1592 23.4883 54.1662 22.6937C54.1691 22.359 54.0553 22.0338 53.8443 21.774C44.2944 10.0156 36.4307 4.13635 30.2534 4.13635C23.876 4.13635 22.0566 11.1662 24.7953 25.226C24.9454 25.9966 25.6856 26.5046 26.4587 26.3676C31.3344 25.5035 36.0121 24.8932 40.4917 24.5367Z" fill="#FF4154"/>
<path fill-rule="evenodd" clip-rule="evenodd" d="M62.6819 26.472C64.9647 29.7616 67.1557 33.2451 69.2548 36.9228C69.6487 37.613 70.5275 37.8531 71.2177 37.4592C71.5071 37.294 71.7302 37.0335 71.8489 36.7222C77.2509 22.5528 78.3862 12.781 75.2548 7.40683C72.0234 1.86104 64.9826 3.77863 54.1322 13.1596C53.5357 13.6754 53.4654 14.5753 53.9748 15.1773C57.1986 18.9881 60.1009 22.753 62.6819 26.472Z" fill="#FF4154"/>
<path fill-rule="evenodd" clip-rule="evenodd" d="M72.2631 46.2673C70.5546 49.8581 68.6342 53.467 66.5019 57.0941C66.0992 57.7791 66.3281 58.6609 67.0131 59.0637C67.3031 59.2342 67.6438 59.2976 67.9757 59.2431C82.8629 56.7953 91.8526 52.8885 94.9449 47.5227C98.1386 41.9809 93.0027 36.9016 79.5372 32.2847C78.7954 32.0303 77.9866 32.4169 77.7184 33.1538C76.0193 37.8237 74.2008 42.1949 72.2631 46.2673Z" fill="#FF4154"/>
<path fill-rule="evenodd" clip-rule="evenodd" d="M60.0479 64.8511C56.0949 65.1657 52.0206 65.3047 47.8248 65.2679C47.0301 65.2609 46.3803 65.8995 46.3734 66.6941C46.3704 67.0288 46.4843 67.354 46.6953 67.6138C56.2452 79.3722 64.1088 85.2515 70.2861 85.2515C76.6636 85.2515 78.4829 78.2216 75.7443 64.1619C75.5941 63.3912 74.854 62.8832 74.0809 63.0202C69.2051 63.8843 64.5274 64.4946 60.0479 64.8511Z" fill="#FF4154"/>
<path fill-rule="evenodd" clip-rule="evenodd" d="M37.3182 63.0956C35.0354 59.8061 32.8444 56.3225 30.7453 52.6448C30.3514 51.9546 29.4726 51.7145 28.7824 52.1084C28.493 52.2736 28.2699 52.5341 28.1512 52.8455C22.7491 67.0148 21.6138 76.7866 24.7453 82.1608C27.9767 87.7066 35.0175 85.789 45.8678 76.408C46.4644 75.8923 46.5346 74.9924 46.0253 74.3903C42.8015 70.5795 39.8991 66.8146 37.3182 63.0956Z" fill="#FF4154"/>
<path fill-rule="evenodd" clip-rule="evenodd" d="M27.7369 42.7608C29.4455 39.17 31.3659 35.5611 33.4981 31.934C33.9008 31.249 33.672 30.3672 32.9869 29.9645C32.6969 29.794 32.3563 29.7305 32.0243 29.7851C17.1371 32.2328 8.14742 36.1396 5.05511 41.5054C1.8614 47.0472 6.9973 52.1265 20.4628 56.7434C21.2046 56.9978 22.0135 56.6113 22.2816 55.8743C23.9808 51.2044 25.7992 46.8332 27.7369 42.7608Z" fill="#FF4154"/>
<path fill-rule="evenodd" clip-rule="evenodd" d="M43.4745 28.7766H55.8088C57.6126 28.7766 59.2787 29.7414 60.1766 31.3059L66.3698 42.0973C67.2607 43.6496 67.2607 45.5583 66.3698 47.1106L60.1766 57.902C59.2787 59.4665 57.6126 60.4313 55.8088 60.4313H43.4745C41.6706 60.4313 40.0045 59.4665 39.1067 57.902L32.9135 47.1106C32.0225 45.5583 32.0225 43.6496 32.9135 42.0973L39.1067 31.3059C40.0045 29.7414 41.6706 28.7766 43.4745 28.7766ZM53.9289 32.0337C55.7337 32.0337 57.4005 32.9995 58.298 34.5653L62.6167 42.0996C63.5059 43.6508 63.5059 45.5571 62.6167 47.1083L58.298 54.6426C57.4005 56.2084 55.7337 57.1742 53.9289 57.1742H45.3543C43.5495 57.1742 41.8827 56.2084 40.9852 54.6426L36.6666 47.1083C35.7774 45.5571 35.7774 43.6508 36.6666 42.0996L40.9852 34.5653C41.8827 32.9995 43.5495 32.0337 45.3543 32.0337H53.9289ZM51.9027 35.5961H47.3805C45.5776 35.5961 43.9122 36.5599 43.014 38.1232L40.7319 42.0951C39.8393 43.6486 39.8393 45.5593 40.7319 47.1128L43.014 51.0847C43.9122 52.648 45.5776 53.6118 47.3805 53.6118H51.9027C53.7057 53.6118 55.3711 52.648 56.2693 51.0847L58.5514 47.1128C59.444 45.5593 59.444 43.6486 58.5514 42.0951L56.2693 38.1232C55.3711 36.5599 53.7057 35.5961 51.9027 35.5961ZM49.9517 39.0059C51.7533 39.0059 53.4176 39.9683 54.3164 41.5297L54.6399 42.0918C55.535 43.647 55.535 45.5609 54.6399 47.1161L54.3164 47.6782C53.4176 49.2396 51.7533 50.202 49.9517 50.202H49.3316C47.53 50.202 45.8656 49.2396 44.9669 47.6782L44.6434 47.1161C43.7483 45.5609 43.7483 43.647 44.6434 42.0918L44.9669 41.5297C45.8656 39.9683 47.53 39.0059 49.3316 39.0059H49.9517ZM49.6424 42.3647C48.8406 42.3647 48.1011 42.7915 47.7008 43.4843C47.3005 44.1771 47.3005 45.0308 47.7008 45.7236C48.1011 46.4164 48.8406 46.8432 49.6408 46.8432C50.4427 46.8432 51.1821 46.4164 51.5825 45.7236C51.9828 45.0308 51.9828 44.1771 51.5825 43.4843C51.1821 42.7915 50.4427 42.3647 49.6424 42.3647ZM31.4749 44.604H35.5064H31.4749Z" fill="#FFD94C"/>
</svg>
