<svg width="100" height="86" viewBox="0 0 100 86" fill="none" xmlns="http://www.w3.org/2000/svg">
<path d="M96.082 65.7657C90.7453 68.5474 63.1 79.9142 57.2145 82.9825C51.3289 86.0513 48.0594 86.0216 43.4098 83.7989C38.7605 81.5763 9.34102 69.6927 4.04141 67.1595C1.39297 65.8938 0 64.8251 0 63.8157V53.7079C0 53.7079 38.3008 45.37 44.484 43.1517C50.6668 40.9333 52.8121 40.8532 58.0738 42.7806C63.3363 44.7087 94.7996 50.3852 100 52.2899L99.9977 62.2548C99.9984 63.254 98.7984 64.3501 96.082 65.7657Z" fill="#912626"/>
<path d="M96.0801 55.7177C90.7438 58.4981 63.0993 69.8653 57.2137 72.9333C51.3285 76.0024 48.059 75.9723 43.4098 73.7497C38.7602 71.5286 9.34183 59.6431 4.04261 57.1114C-1.25661 54.5782 -1.36754 52.8349 3.83792 50.7966C9.04339 48.7575 38.3004 37.279 44.4844 35.0607C50.6672 32.8431 52.8121 32.7622 58.0739 34.6904C63.336 36.6177 90.8157 47.5556 96.0153 49.4599C101.217 51.3665 101.416 52.9364 96.0801 55.7177Z" fill="#C6302B"/>
<path d="M96.082 49.4106C90.7453 52.1926 63.1 63.5591 57.2145 66.6286C51.3289 69.6962 48.0594 69.6665 43.4098 67.4438C38.7602 65.2223 9.34102 53.3376 4.04141 50.8044C1.39297 49.5387 0 48.4716 0 47.4618V37.3528C0 37.3528 38.3008 29.0153 44.484 26.7969C50.6668 24.5786 52.8121 24.4981 58.0738 26.4259C63.3367 28.3536 94.8 34.029 100 35.9341L99.9977 45.9001C99.9984 46.8989 98.7984 47.995 96.082 49.4106Z" fill="#912626"/>
<path d="M96.0801 39.3625C90.7438 42.1438 63.0993 53.5102 57.2137 56.5793C51.3285 59.6473 48.059 59.6172 43.4098 57.3946C38.7602 55.1735 9.34183 43.2883 4.04261 40.7563C-1.25661 38.2239 -1.36754 36.4801 3.83792 34.4411C9.04339 32.4032 38.3008 20.9239 44.4844 18.7059C50.6672 16.4879 52.8121 16.4075 58.0739 18.3352C63.336 20.2625 90.8157 31.1997 96.0153 33.1047C101.217 35.011 101.416 36.5813 96.0801 39.3625Z" fill="#C6302B"/>
<path d="M96.082 32.4493C90.7453 35.2305 63.1 46.5977 57.2145 49.6673C51.3289 52.7353 48.0594 52.7052 43.4098 50.4825C38.7602 48.261 9.34102 36.3759 4.04141 33.8438C1.39297 32.577 0 31.5094 0 30.5008V20.3915C0 20.3915 38.3008 12.0543 44.484 9.83636C50.6668 7.61761 52.8121 7.53792 58.0738 9.46527C63.3367 11.393 94.8 17.0684 100 18.9735L99.9977 28.9391C99.9984 29.9372 98.7984 31.0333 96.082 32.4493Z" fill="#912626"/>
<path d="M96.08 22.4013C90.7437 25.1825 63.0992 36.5497 57.2136 39.6177C51.3285 42.6857 48.0589 42.6556 43.4097 40.4341C38.7605 38.2114 9.34176 26.3271 4.04293 23.7946C-1.25668 21.2626 -1.36723 19.5185 3.83785 17.4798C9.04332 15.4415 38.3007 3.96376 44.4843 1.74501C50.6671 -0.473348 52.8121 -0.553036 58.0738 1.3747C63.3359 3.30244 90.8156 14.2395 96.0152 16.1446C101.217 18.0493 101.416 19.62 96.08 22.4013Z" fill="#C6302B"/>
<path d="M62.22 12.568L53.6223 13.4606L51.6977 18.0918L48.5891 12.9238L38.6613 12.0317L46.0692 9.36017L43.8465 5.2594L50.7821 7.97189L57.3204 5.83127L55.5532 10.0715L62.22 12.568ZM51.1844 35.0359L35.1387 28.3808L58.1309 24.8516L51.1844 35.0359ZM28.9383 15.1422C35.7254 15.1422 41.2273 17.275 41.2273 19.9055C41.2273 22.5367 35.7254 24.6691 28.9383 24.6691C22.1511 24.6691 16.6492 22.5363 16.6492 19.9055C16.6492 17.275 22.1511 15.1422 28.9383 15.1422Z" fill="white"/>
<path d="M72.3809 13.834L85.9887 19.2114L72.3926 24.5836L72.3809 13.8336" fill="#621B1C"/>
<path d="M57.3262 19.7892L72.3809 13.8341L72.3926 24.5838L70.9164 25.1611L57.3262 19.7892Z" fill="#9A2928"/>
</svg>
